<svg width="48" height="48" viewBox="0 0 48 48" fill="none" xmlns="http://www.w3.org/2000/svg">
<g clip-path="url(#clip0_533_2337)">
<path d="M27.5176 19.0312C27.5176 19.8065 28.1486 20.4375 28.9238 20.4375H33.1042C33.0283 19.4479 32.7988 18.5021 32.4316 17.625H28.9238C28.1486 17.625 27.5176 18.256 27.5176 19.0312Z" fill="#232536"/>
<path d="M18.377 36H26.8145C27.2031 36 27.5176 35.6855 27.5176 35.2969V31.6875H28.9238V27.1172L21.893 21.8438H15.5645C15.1758 21.8438 14.8613 22.1582 14.8613 22.5469C14.8613 25.0373 15.8824 27.4228 17.6738 29.1428V35.2969C17.6738 35.6855 17.9883 36 18.377 36Z" fill="#FFD050"/>
<path d="M24.002 12C23.6133 12 23.2988 12.3145 23.2988 12.7031V13.4062H20.3568C20.0656 12.5896 19.2924 12 18.377 12C17.2138 12 16.2676 12.9462 16.2676 14.1094C16.2676 15.2725 17.2138 16.2188 18.377 16.2188C19.2924 16.2188 20.0656 15.6292 20.3568 14.8125H23.2988V17.625H16.1381C15.8468 16.8083 15.0737 16.2188 14.1582 16.2188C12.995 16.2188 12.002 17.165 12.002 18.3281C12.002 19.4913 12.995 20.4375 14.1582 20.4375C15.0737 20.4375 15.8468 19.8479 16.1381 19.0312H23.2988V21.141L30.0485 26.2033C30.2257 26.3358 30.3301 26.5445 30.3301 26.7656V31.6875H31.0332C32.1964 31.6875 33.1426 30.7413 33.1426 29.5781V26.0625H35.2988C35.5584 26.0625 35.7966 25.9197 35.9189 25.691C36.0411 25.4624 36.0274 25.185 35.8839 24.9693L33.7533 21.8438H28.9238C27.3727 21.8438 26.1113 20.5824 26.1113 19.0312C26.1113 17.4801 27.3727 16.2188 28.9238 16.2188H31.6897C30.0628 13.6865 27.2291 12 24.002 12V12Z" fill="#232536"/>
</g>
<defs>
<clipPath id="clip0_533_2337">
<rect width="24" height="24" fill="white" transform="translate(12 12)"/>
</clipPath>
</defs>
</svg>
